<?xml version="1.0" ?><!DOCTYPE svg  PUBLIC '-//W3C//DTD SVG 1.1//EN'  'http://www.w3.org/Graphics/SVG/1.1/DTD/svg11.dtd'><svg enable-background="new 0 0 512 512" height="512px" id="Layer_1" version="1.1" viewBox="0 0 512 512" width="512px" xml:space="preserve" xmlns="http://www.w3.org/2000/svg" xmlns:xlink="http://www.w3.org/1999/xlink"><path d="M468,117.499L357.944,8H115.581C98.792,8,85,20.858,85,37.646v156.6c0-0.03,1.023-0.246,1.703-0.246H100  V37.646C100,29.265,107.2,23,115.581,23h235.583L356,27.535v61.593C356,105.847,369.596,119,386.315,119h61.593l4.092,4.795v349.553  c0,8.381-5.822,15.652-14.203,15.652H115.581C107.2,489,100,481.728,100,473.348V413H86.703c-0.68,0-1.703,0.037-1.703,0.007v60.34  C85,490.136,98.792,504,115.581,504h322.217C454.586,504,468,490.136,468,473.348V117.499z M386.315,104  C377.934,104,371,97.509,371,89.128V44.232v-0.291L431.502,104H386.315z" fill="#333333"/><path d="M373.602,209H74.398C57.61,209,44,222.61,44,239.398v127.204C44,383.39,57.61,397,74.398,397h299.204  C390.39,397,404,383.39,404,366.602V239.398C404,222.61,390.39,209,373.602,209z M163,353h-34.449l-35.198-68H92.76  c0.834,11,1.24,19.151,1.24,24.776V353H71v-96h33.955l35.066,67h0.396C139.8,314,139,306.306,139,300.416V257h24V353z M241,278h-31  v15h28v21h-28v18h31v21h-57v-96h57V278z M361.687,353h-30.781l-9.228-41.881c-0.44-1.757-1.132-5.197-2.076-10.426  c-0.946-5.229-1.638-9.574-2.077-13.091c-0.352,2.857-0.922,6.419-1.713,10.659c-0.791,4.241-1.572,8.04-2.34,11.599  c-0.77,3.56-3.967,18.139-9.591,43.139H273.1l-23.861-96h25.113l10.48,48.238c2.373,10.678,3.998,19.143,4.877,25.471  c0.571-4.482,1.593-10.587,3.065-18.278c1.472-7.688,2.845-13.994,4.119-19.048L305.396,257h24.125l8.239,36.374  c1.405,5.845,2.834,12.551,4.284,20.197c1.45,7.646,2.416,13.339,2.9,17.119c0.57-4.878,2.131-13.27,4.68-25.31L360.303,257h25.113  L361.687,353z" fill="#333333"/></svg>