<?xml version="1.0" ?><!DOCTYPE svg  PUBLIC '-//W3C//DTD SVG 1.1//EN'  'http://www.w3.org/Graphics/SVG/1.1/DTD/svg11.dtd'><svg baseProfile="full" height="53px" version="1.1" width="53px" xmlns="http://www.w3.org/2000/svg" xmlns:ev="http://www.w3.org/2001/xml-events" xmlns:xlink="http://www.w3.org/1999/xlink"><path d="M48.2190000000001,40.513 C47.933,40.985 47.317,41.135 46.8449999999998,40.846 C46.373,40.558 46.2249999999999,39.943 46.5120000000002,39.472 C48.799,35.722 50.0079999999998,31.4059999999999 50.0079999999998,26.992 C50.0079999999998,13.758 39.2420000000002,2.99199999999996 26.0079999999998,2.99199999999996 C12.7750000000001,2.99199999999996 2.00799999999981,13.758 2.00799999999981,26.992 C2.00799999999981,40.226 12.7750000000001,50.992 26.0079999999998,50.992 C33.5590000000002,51.024 37.846,48.342 39.3429999999998,45.782 C39.915,44.803 40.076,43.807 39.7530000000002,43.2430000000001 C39.6129999999998,42.999 39.346,42.876 39.0169999999998,42.811 C39.0169999999998,42.811 38.087,43.742 38.087,43.742 C37.5329999999999,44.297 36.5010000000002,44.957 34.732,44.957 C34.7310000000002,44.957 34.7310000000002,44.957 34.7310000000002,44.957 C31.8760000000002,44.957 26.7040000000002,43.187 18.2759999999998,34.759 C13.2800000000002,29.763 10.0650000000001,25.4160000000001 8.71799999999985,21.84 C7.21500000000015,17.845 8.43299999999999,15.807 9.29300000000012,14.948 C9.29300000000012,14.948 12.1390000000001,12.102 12.1390000000001,12.102 C12.8319999999999,11.408 13.7530000000002,11.027 14.7330000000002,11.027 C15.8739999999998,11.027 16.9299999999998,11.543 17.6309999999999,12.443 C17.6309999999999,12.443 21.098,16.898 21.098,16.898 C22.1399999999999,18.236 22.1329999999998,20.098 21.0819999999999,21.428 C21.0819999999999,21.428 20.3000000000002,22.419 20.3000000000002,22.419 C19.7739999999999,23.0839999999999 19.8299999999999,24.0359999999999 20.4290000000001,24.635 C20.4290000000001,24.635 28.3989999999999,32.606 28.3989999999999,32.606 C28.9830000000002,33.1900000000001 29.9670000000001,33.247 30.616,32.735 C30.616,32.735 31.6060000000002,31.952 31.6060000000002,31.952 C32.8899999999999,30.9400000000001 34.8470000000002,30.932 36.1370000000002,31.936 C36.1370000000002,31.936 40.5920000000001,35.404 40.5920000000001,35.404 C41.422,36.05 41.9360000000001,37.023 42.0010000000002,38.073 C42.0659999999998,39.123 41.6770000000001,40.152 40.933,40.896 C40.933,40.896 40.547,41.282 40.547,41.282 C40.9250000000002,41.528 41.2539999999999,41.84 41.4879999999998,42.248 C42.1819999999998,43.458 42.0259999999998,45.157 41.069,46.792 C40.2139999999999,48.255 36.6309999999999,52.9930000000001 26.2849999999999,52.9930000000001 C26.1900000000001,52.9930000000001 26.096,52.9930000000001 26,52.992 C11.672,52.992 0.00799999999981,41.328 0.00799999999981,26.992 C0.00799999999981,12.655 11.672,0.99199999999996 26.0079999999998,0.99199999999996 C40.3449999999998,0.99199999999996 52.0079999999998,12.655 52.0079999999998,26.992 C52.0079999999998,31.774 50.6979999999999,36.449 48.2190000000001,40.513 ZM39.364,36.982 C39.364,36.982 34.9079999999999,33.514 34.9079999999999,33.514 C34.3119999999999,33.052 33.4389999999999,33.054 32.8470000000002,33.522 C32.8470000000002,33.522 31.8560000000002,34.3049999999999 31.8560000000002,34.3049999999999 C30.4409999999998,35.423 28.259,35.294 26.9850000000001,34.02 C26.9850000000001,34.02 19.0149999999999,26.05 19.0149999999999,26.05 C17.6979999999999,24.734 17.576,22.639 18.73,21.179 C18.73,21.179 19.5129999999999,20.188 19.5129999999999,20.188 C19.991,19.583 19.9940000000001,18.736 19.52,18.127 C19.52,18.127 16.0520000000001,13.671 16.0520000000001,13.671 C15.7339999999999,13.261 15.2530000000002,13.027 14.7330000000002,13.027 C14.2869999999998,13.027 13.8679999999999,13.2 13.5529999999999,13.516 C13.5529999999999,13.516 10.7069999999999,16.362 10.7069999999999,16.362 C9.82400000000007,17.245 9.78200000000015,18.985 10.5909999999999,21.135 C11.835,24.444 14.8969999999999,28.551 19.6900000000001,33.345 C28.0540000000001,41.708 32.703,42.957 34.7310000000002,42.957 C34.7310000000002,42.957 34.7310000000002,42.957 34.7310000000002,42.957 C35.578,42.957 36.2669999999998,42.734 36.6729999999998,42.328 C36.6729999999998,42.328 37.9609999999998,41.039 37.9609999999998,41.039 C37.9609999999998,41.039 37.9609999999998,41.039 37.9609999999998,41.039 C37.9609999999998,41.039 39.5189999999998,39.482 39.5189999999998,39.482 C39.8620000000001,39.138 40.0349999999999,38.682 40.0050000000001,38.197 C39.9749999999999,37.712 39.7469999999998,37.2809999999999 39.364,36.982 Z " fill="rgb( 80, 80, 112 )"/></svg>